HIERARCHY
ROOT joint_Root
{
	OFFSET 0.0 0.0 0.0
	CHANNELS 6 Xposition Yposition Zposition Zrotation Xrotation Yrotation 
	JOINT Hips
	{
		OFFSET 4.5925 91.4895 -427.239
		CHANNELS 6 Xposition Yposition Zposition Zrotation Xrotation Yrotation 
		JOINT Spine
		{
			OFFSET 15.7357 0.0 0.0
			CHANNELS 6 Xposition Yposition Zposition Zrotation Xrotation Yrotation 
			JOINT Chest
			{
				OFFSET 8.98455 -0.406207 0.0
				CHANNELS 6 Xposition Yposition Zposition Zrotation Xrotation Yrotation 
				JOINT Neck
				{
					OFFSET 16.3773 0.0 0.0
					CHANNELS 6 Xposition Yposition Zposition Zrotation Xrotation Yrotation 
					JOINT Head
					{
						OFFSET 6.45672 0.0 0.0
						CHANNELS 6 Xposition Yposition Zposition Zrotation Xrotation Yrotation 
						End Site
						{
							OFFSET 0.0 0.0 0.0
						}
					}
				}
				JOINT Shoulder_L
				{
					OFFSET 12.9942 -0.242716 4.98039
					CHANNELS 6 Xposition Yposition Zposition Zrotation Xrotation Yrotation 
					JOINT UpperArm_L
					{
						OFFSET 5.34809 0.0 0.0
						CHANNELS 6 Xposition Yposition Zposition Zrotation Xrotation Yrotation 
						JOINT LowerArm_L
						{
							OFFSET 24.3286 1.87007e-05 0.0
							CHANNELS 6 Xposition Yposition Zposition Zrotation Xrotation Yrotation 
							JOINT Hand_L
							{
								OFFSET 22.2916 0.0 0.0
								CHANNELS 6 Xposition Yposition Zposition Zrotation Xrotation Yrotation 
								End Site
								{
									OFFSET 0.0 0.0 0.0
								}
							}
						}
					}
				}
				JOINT Shoulder_R
				{
					OFFSET 12.9945 -0.242716 -4.98039
					CHANNELS 6 Xposition Yposition Zposition Zrotation Xrotation Yrotation 
					JOINT UpperArm_R
					{
						OFFSET -5.34813 0.0 0.0
						CHANNELS 6 Xposition Yposition Zposition Zrotation Xrotation Yrotation 
						JOINT LowerArm_R
						{
							OFFSET -24.3289 0.000322201 0.0
							CHANNELS 6 Xposition Yposition Zposition Zrotation Xrotation Yrotation 
							JOINT Hand_R
							{
								OFFSET -22.2915 -0.000108084 0.0
								CHANNELS 6 Xposition Yposition Zposition Zrotation Xrotation Yrotation 
								End Site
								{
									OFFSET 0.0 0.0 0.0
								}
							}
						}
					}
				}
			}
		}
		JOINT UpperLeg_L
		{
			OFFSET -2.19248 -6.46944 0.0
			CHANNELS 6 Xposition Yposition Zposition Zrotation Xrotation Yrotation 
			JOINT LowerLeg_L
			{
				OFFSET 39.0811 0.0 -1.23785e-05
				CHANNELS 6 Xposition Yposition Zposition Zrotation Xrotation Yrotation 
				JOINT Foot_L
				{
					OFFSET 40.9854 0.0 -1.26872e-05
					CHANNELS 6 Xposition Yposition Zposition Zrotation Xrotation Yrotation 
					JOINT Toes_L
					{
						OFFSET 11.7543 0.0 0.0
						CHANNELS 6 Xposition Yposition Zposition Zrotation Xrotation Yrotation 
						End Site
						{
							OFFSET 0.0 0.0 0.0
						}
					}
				}
			}
		}
		JOINT UpperLeg_R
		{
			OFFSET -2.19251 6.46944 0.0
			CHANNELS 6 Xposition Yposition Zposition Zrotation Xrotation Yrotation 
			JOINT LowerLeg_R
			{
				OFFSET -39.0811 -0.00228153 -0.0401928
				CHANNELS 6 Xposition Yposition Zposition Zrotation Xrotation Yrotation 
				JOINT Foot_R
				{
					OFFSET -40.9854 0.0 0.0
					CHANNELS 6 Xposition Yposition Zposition Zrotation Xrotation Yrotation 
					JOINT Toes_R
					{
						OFFSET -11.7543 0.0 0.0
						CHANNELS 6 Xposition Yposition Zposition Zrotation Xrotation Yrotation 
						End Site
						{
							OFFSET 0.0 0.0 0.0
						}
					}
				}
			}
		}
	}
}
MOTION
Frames:	4
Frame Time:	0.0333333
0.000000 0.000000 0.000000 0.000000 0.000000 -0.000000 -0.913779 90.713400 -2.893970 89.484100 -3.306800 12.256100 15.735700 0.000005 -0.000001 87.065200 78.970200 -87.539200 8.984550 -0.406207 -0.000000 14.262000 -1.142760 -0.805580 16.377300 -0.000001 -0.000001 9.559070 -3.809950 2.457960 6.456720 -0.000001 -0.000000 -1.018730 -3.359550 1.306790 12.994200 -0.242716 4.980390 -91.460100 6.655120 -77.596100 5.348090 -0.000007 -0.000001 -58.308700 37.199500 -24.778700 24.328600 0.000019 0.000005 9.447610 22.773100 -23.262300 22.291600 -0.000001 0.000005 10.945500 5.292320 0.286694 12.994500 -0.242716 -4.980390 88.986100 11.748000 -85.032400 -5.348130 -0.000001 -0.000004 -59.250200 36.239300 -19.521800 -24.328900 0.000322 -0.000009 2.741060 6.755810 -22.153400 -22.291500 -0.000108 -0.000004 14.725300 5.422080 -3.669140 -2.192480 -6.469440 -0.000000 -174.679000 -13.220800 -0.963158 39.081100 -0.000007 -0.000012 -0.165019 0.259971 32.406000 40.985400 -0.000006 -0.000013 0.935366 5.429110 -68.962800 11.754300 -0.000000 0.000003 -0.000178 -0.001680 -16.641100 -2.192510 6.469440 -0.000001 174.047000 20.650000 -179.166000 -39.081100 -0.002282 -0.040193 -0.184288 0.305437 31.556600 -40.985400 0.000008 0.000006 4.608770 15.266200 -69.975000 -11.754300 -0.000006 -0.000006 -0.002703 -0.037189 -18.085400
0.000000 0.000000 0.000000 0.000000 0.000000 -0.000000 -0.916954 90.708400 -2.889280 89.485300 -3.278360 12.265300 15.735700 0.000005 -0.000001 87.051000 78.979400 -87.527500 8.984550 -0.406207 -0.000000 14.243500 -1.147300 -0.810074 16.377300 -0.000001 -0.000001 9.600150 -3.789580 2.432730 6.456720 -0.000001 -0.000000 -1.018060 -3.358900 1.313400 12.994200 -0.242716 4.980390 -91.450800 6.607470 -77.587200 5.348090 -0.000007 -0.000001 -58.556300 36.321500 -24.633700 24.328600 0.000019 0.000005 9.609370 22.172800 -24.161400 22.291600 -0.000001 0.000005 11.104300 5.294490 0.226484 12.994500 -0.242716 -4.980390 88.976100 11.712400 -84.968600 -5.348130 -0.000001 -0.000004 -59.282600 36.108900 -19.426900 -24.328900 0.000322 -0.000009 2.790380 6.563670 -23.101000 -22.291500 -0.000108 -0.000004 14.793000 5.423940 -3.732200 -2.192480 -6.469440 -0.000000 -174.675000 -13.206600 -0.969051 39.081100 -0.000007 -0.000012 -0.166978 0.262813 32.430000 40.985400 -0.000006 -0.000013 0.938382 5.452060 -68.972500 11.754300 -0.000000 0.000003 -0.000185 -0.001730 -16.643000 -2.192510 6.469440 -0.000001 174.032000 20.655100 -179.155000 -39.081100 -0.002282 -0.040193 -0.189301 0.313338 31.578000 -40.985400 0.000008 0.000006 4.598050 15.236200 -69.991900 -11.754300 -0.000006 -0.000006 -0.002941 -0.039936 -18.197200
0.000000 0.000000 0.000000 0.000000 0.000000 -0.000000 -0.919141 90.703600 -2.887360 89.490100 -3.259960 12.305300 15.735700 0.000005 -0.000001 87.059900 78.975700 -87.538900 8.984550 -0.406207 -0.000000 14.250800 -1.144430 -0.815243 16.377300 -0.000001 -0.000001 9.664490 -3.783230 2.457910 6.456720 -0.000001 -0.000000 -1.059540 -3.321560 1.256500 12.994200 -0.242716 4.980390 -91.447000 6.550220 -77.514300 5.348090 -0.000007 -0.000001 -58.551900 35.579200 -24.746300 24.328600 0.000019 0.000005 9.934830 21.761900 -25.287600 22.291600 -0.000001 0.000005 11.210100 5.296580 0.168175 12.994500 -0.242716 -4.980390 88.965300 11.635800 -84.882900 -5.348130 -0.000001 -0.000004 -59.369300 35.740400 -19.278300 -24.328900 0.000322 -0.000009 2.884740 6.369850 -24.435500 -22.291500 -0.000108 -0.000004 14.876300 5.426980 -3.835670 -2.192480 -6.469440 -0.000000 -174.661000 -13.265200 -0.929773 39.081100 -0.000007 -0.000012 -0.163346 0.256901 32.449900 40.985400 -0.000006 -0.000013 0.956955 5.492180 -68.989000 11.754300 -0.000000 0.000003 -0.000183 -0.001719 -16.642600 -2.192510 6.469440 -0.000001 174.004000 20.656000 -179.117000 -39.081100 -0.002282 -0.040193 -0.191253 0.316226 31.601300 -40.985400 0.000008 0.000006 4.601010 15.243900 -70.010100 -11.754300 -0.000006 -0.000006 -0.002891 -0.039368 -18.174100
0.000000 0.000000 0.000000 0.000000 0.000000 -0.000000 -0.925994 90.704800 -2.909040 89.470700 -3.227950 12.285400 15.735700 0.000005 -0.000001 87.039300 78.990100 -87.511800 8.984550 -0.406207 -0.000000 14.221800 -1.150400 -0.802026 16.377300 -0.000001 -0.000001 9.754830 -3.754510 2.459240 6.456720 -0.000001 -0.000000 -1.095000 -3.298520 1.253560 12.994200 -0.242716 4.980390 -91.443300 6.459860 -77.376800 5.348090 -0.000007 -0.000001 -58.378600 34.887200 -25.082700 24.328600 0.000019 0.000005 10.299000 21.314500 -26.560900 22.291600 -0.000001 0.000005 11.368300 5.296640 0.166387 12.994500 -0.242716 -4.980390 88.949900 11.510200 -84.751700 -5.348130 -0.000001 -0.000004 -59.535000 35.132600 -19.174300 -24.328900 0.000322 -0.000009 2.917170 6.013940 -25.946300 -22.291500 -0.000108 -0.000004 15.094400 5.432100 -4.011180 -2.192480 -6.469440 -0.000000 -174.639000 -13.255000 -0.976360 39.081100 -0.000007 -0.000012 -0.163846 0.257576 32.461100 40.985400 -0.000006 -0.000013 0.962744 5.543000 -68.974100 11.754300 -0.000000 0.000003 -0.000204 -0.001885 -16.648600 -2.192510 6.469440 -0.000001 174.043000 20.685000 -179.144000 -39.081100 -0.002282 -0.040193 -0.189425 0.313376 31.591400 -40.985400 0.000008 0.000006 4.599220 15.204100 -69.991500 -11.754300 -0.000006 -0.000006 -0.002944 -0.039968 -18.198500
